<svg xmlns="http://www.w3.org/2000/svg" width="64" height="64" viewBox="0 0 64 64" fill="none">
  <title>Storage Building</title>
  <!-- Simple self-storage icon: roof + roll-up door -->
  <defs>
    <linearGradient id="g" x1="8" y1="8" x2="56" y2="56" gradientUnits="userSpaceOnUse">
      <stop stop-color="#d3a772"/>
      <stop offset="0.55" stop-color="#8b5e34"/>
      <stop offset="1" stop-color="#2f5d3a"/>
    </linearGradient>
  </defs>

  <!-- Background rounded square -->
  <rect x="4" y="4" width="56" height="56" rx="12" fill="url(#g)"/>

  <!-- Building body -->
  <path d="M16 28.5c0-1.38 1.12-2.5 2.5-2.5h27c1.38 0 2.5 1.12 2.5 2.5V48c0 1.66-1.34 3-3 3H19c-1.66 0-3-1.34-3-3V28.5Z" fill="#fffaf2" opacity="0.95"/>

  <!-- Roof -->
  <path d="M14 28l18-12 18 12" stroke="#fffaf2" stroke-width="3" stroke-linecap="round" stroke-linejoin="round"/>

  <!-- Door frame -->
  <rect x="24" y="32" width="16" height="19" rx="2" fill="#1c1712" opacity="0.12"/>

  <!-- Roll-up door slats -->
  <path d="M25 36h14M25 39h14M25 42h14M25 45h14M25 48h14" stroke="#1c1712" stroke-width="1.6" opacity="0.35" stroke-linecap="round"/>

  <!-- Small latch -->
  <circle cx="39.5" cy="41.5" r="1.3" fill="#1c1712" opacity="0.45"/>
</svg>
